<svg xmlns="http://www.w3.org/2000/svg" width="1280" height="800" viewBox="0 0 1280 800" font-family="Segoe UI, Roboto, Helvetica, Arial, sans-serif">
  <rect width="1280" height="800" fill="#eef1f5"/>

  <!-- header -->
  <rect width="1280" height="52" fill="#ffffff"/>
  <rect y="51" width="1280" height="1" fill="#dce0e6"/>
  <rect x="18" y="14" width="24" height="24" rx="6" fill="#2563eb"/>
  <text x="30" y="31" fill="#ffffff" font-size="14" font-weight="700" text-anchor="middle">C</text>
  <text x="52" y="33" fill="#1b2330" font-size="16" font-weight="700">Claude Sessions</text>
  <circle cx="232" cy="27" r="5" fill="#16a34a"/><text x="242" y="31" fill="#6b7480" font-size="13"><tspan fill="#1b2330" font-weight="700">2</tspan> active</text>
  <circle cx="326" cy="27" r="5" fill="#d97706"/><text x="336" y="31" fill="#6b7480" font-size="13"><tspan fill="#1b2330" font-weight="700">3</tspan> idle</text>
  <text x="406" y="31" fill="#6b7480" font-size="13"><tspan fill="#1b2330" font-weight="700">30</tspan> total</text>

  <!-- view toggle -->
  <rect x="690" y="13" width="270" height="28" rx="8" fill="#ffffff" stroke="#dce0e6"/>
  <rect x="690" y="13" width="92" height="28" rx="8" fill="#2563eb"/>
  <text x="736" y="31" fill="#ffffff" font-size="13" font-weight="600" text-anchor="middle">List</text>
  <text x="850" y="31" fill="#6b7480" font-size="13" text-anchor="middle">Timeline</text>
  <text x="930" y="31" fill="#6b7480" font-size="13" text-anchor="middle">Board</text>

  <!-- search + gear -->
  <rect x="1000" y="12" width="210" height="30" rx="8" fill="#ffffff" stroke="#dce0e6"/>
  <text x="1014" y="31" fill="#9aa3af" font-size="13">Search…</text>
  <rect x="1222" y="12" width="36" height="30" rx="8" fill="#ffffff" stroke="#dce0e6"/>
  <circle cx="1240" cy="27" r="6" fill="none" stroke="#6b7480" stroke-width="1.5"/><circle cx="1240" cy="27" r="2" fill="#6b7480"/>

  <!-- project tiles -->
  <g>
    <rect x="24" y="62" width="150" height="80" rx="10" fill="#f4f6f9" stroke="#2563eb" stroke-width="2"/>
    <text x="38" y="132" fill="#1b2330" font-size="13" font-weight="700">All projects</text>
    <text x="158" y="84" fill="#1b2330" font-size="13" font-weight="700" text-anchor="end">30</text>

    <rect x="184" y="62" width="150" height="80" rx="10" fill="#3f7cc0"/>
    <text x="198" y="132" fill="#ffffff" font-size="13" font-weight="700">web-shop</text>
    <rect x="300" y="70" width="26" height="18" rx="9" fill="#ffffff" opacity="0.92"/><text x="313" y="83" fill="#1b2330" font-size="12" font-weight="700" text-anchor="middle">8</text>

    <rect x="344" y="62" width="150" height="80" rx="10" fill="#9c4f93"/>
    <text x="358" y="132" fill="#ffffff" font-size="13" font-weight="700">api-server</text>
    <rect x="460" y="70" width="26" height="18" rx="9" fill="#ffffff" opacity="0.92"/><text x="473" y="83" fill="#1b2330" font-size="12" font-weight="700" text-anchor="middle">5</text>

    <rect x="504" y="62" width="150" height="80" rx="10" fill="#5a9e6f"/>
    <text x="518" y="132" fill="#ffffff" font-size="13" font-weight="700">marketing-site</text>
    <rect x="620" y="70" width="26" height="18" rx="9" fill="#ffffff" opacity="0.92"/><text x="633" y="83" fill="#1b2330" font-size="12" font-weight="700" text-anchor="middle">4</text>

    <rect x="664" y="62" width="150" height="80" rx="10" fill="#c08a3f"/>
    <text x="678" y="132" fill="#ffffff" font-size="13" font-weight="700">mobile-app</text>
    <rect x="780" y="70" width="26" height="18" rx="9" fill="#ffffff" opacity="0.92"/><text x="793" y="83" fill="#1b2330" font-size="12" font-weight="700" text-anchor="middle">3</text>

    <rect x="824" y="62" width="150" height="80" rx="10" fill="#4f9c9c"/>
    <text x="838" y="132" fill="#ffffff" font-size="13" font-weight="700">infra-scripts</text>
    <rect x="940" y="70" width="26" height="18" rx="9" fill="#ffffff" opacity="0.92"/><text x="953" y="83" fill="#1b2330" font-size="12" font-weight="700" text-anchor="middle">2</text>
  </g>

  <!-- list pane -->
  <rect x="0" y="160" width="430" height="640" fill="#ffffff"/>
  <rect x="429" y="160" width="1" height="640" fill="#dce0e6"/>
  <rect x="0" y="160" width="430" height="30" fill="#f4f6f9"/>
  <text x="16" y="180" fill="#6b7480" font-size="11" font-weight="700" letter-spacing="1">WEB-SHOP · 8</text>

  <!-- rows -->
  <g font-size="14">
    <!-- row 1 selected -->
    <rect x="0" y="190" width="430" height="76" fill="#e8f0fe"/>
    <rect x="0" y="190" width="3" height="76" fill="#2563eb"/>
    <circle cx="22" cy="214" r="5" fill="#16a34a"/>
    <text x="40" y="214" fill="#1b2330" font-weight="600">Fix checkout total rounding</text>
    <text x="40" y="233" fill="#6b7480" font-size="12">⎇ main   ·   5 min</text>
    <rect x="40" y="242" width="74" height="18" rx="6" fill="#e8f0fe" stroke="#2563eb"/>
    <text x="50" y="255" fill="#2563eb" font-size="10.5" font-weight="700">In progress</text>

    <rect x="0" y="266" width="430" height="1" fill="#e7eaef"/>
    <circle cx="22" cy="290" r="5" fill="#9aa3af"/>
    <text x="40" y="290" fill="#1b2330" font-weight="600">Add product search filters</text>
    <text x="40" y="309" fill="#6b7480" font-size="12">⎇ feature/search   ·   2 h</text>
    <rect x="40" y="318" width="58" height="18" rx="6" fill="#e8f0fe" stroke="#2563eb"/>
    <text x="50" y="331" fill="#2563eb" font-size="10.5" font-weight="700">Waiting</text>

    <rect x="0" y="342" width="430" height="1" fill="#e7eaef"/>
    <circle cx="22" cy="366" r="5" fill="#d97706"/>
    <text x="40" y="366" fill="#1b2330" font-weight="600">Refactor cart state to store</text>
    <text x="40" y="385" fill="#6b7480" font-size="12">⎇ main   ·   1 d</text>
    <rect x="40" y="394" width="74" height="18" rx="6" fill="#e8f0fe" stroke="#2563eb"/>
    <text x="50" y="407" fill="#2563eb" font-size="10.5" font-weight="700">In progress</text>

    <rect x="0" y="418" width="430" height="1" fill="#e7eaef"/>
    <circle cx="22" cy="442" r="5" fill="#9aa3af"/>
    <text x="40" y="442" fill="#1b2330" font-weight="600">Write release notes v2.3</text>
    <text x="40" y="461" fill="#6b7480" font-size="12">⎇ main   ·   3 d</text>
    <rect x="40" y="470" width="50" height="18" rx="6" fill="#e8f0fe" stroke="#2563eb"/>
    <text x="50" y="483" fill="#2563eb" font-size="10.5" font-weight="700">Done</text>

    <rect x="0" y="494" width="430" height="1" fill="#e7eaef"/>
    <circle cx="22" cy="518" r="5" fill="#9aa3af"/>
    <text x="40" y="518" fill="#1b2330" font-weight="600">Investigate slow checkout API</text>
    <text x="40" y="537" fill="#6b7480" font-size="12">⎇ main   ·   4 d</text>
    <rect x="40" y="546" width="50" height="18" rx="6" fill="#e8f0fe" stroke="#2563eb"/>
    <text x="50" y="559" fill="#2563eb" font-size="10.5" font-weight="700">Done</text>
  </g>

  <!-- detail pane -->
  <g>
    <circle cx="470" cy="206" r="6" fill="#16a34a"/>
    <text x="488" y="214" fill="#1b2330" font-size="22" font-weight="700">Fix checkout total rounding</text>
    <text x="488" y="238" fill="#6b7480" font-size="13">running · web-shop · ⎇ main</text>

    <!-- actions -->
    <rect x="488" y="256" width="120" height="36" rx="8" fill="#2563eb"/>
    <path d="M512 268 l12 7 l-12 7 z" fill="#ffffff"/>
    <text x="532" y="279" fill="#ffffff" font-size="13" font-weight="600">Resume</text>
    <rect x="618" y="256" width="140" height="36" rx="8" fill="#ffffff" stroke="#dce0e6"/>
    <text x="638" y="279" fill="#1b2330" font-size="13" font-weight="600">Open folder</text>
    <rect x="768" y="256" width="130" height="36" rx="8" fill="#ffffff" stroke="#dce0e6"/>
    <text x="784" y="279" fill="#1b2330" font-size="13">In progress  ▾</text>

    <!-- meta card -->
    <rect x="488" y="312" width="752" height="170" rx="12" fill="#ffffff" stroke="#dce0e6"/>
    <g font-size="13">
      <text x="510" y="340" fill="#6b7480" font-size="11" letter-spacing="0.5">PROJECT</text>
      <text x="510" y="360" fill="#1b2330" font-weight="600">web-shop</text>
      <text x="760" y="340" fill="#6b7480" font-size="11" letter-spacing="0.5">BRANCH</text>
      <text x="760" y="360" fill="#1b2330" font-weight="600">main</text>
      <text x="1010" y="340" fill="#6b7480" font-size="11" letter-spacing="0.5">MESSAGES</text>
      <text x="1010" y="360" fill="#1b2330" font-weight="600">148 (you 61 / ai 87)</text>

      <text x="510" y="392" fill="#6b7480" font-size="11" letter-spacing="0.5">IMAGES</text>
      <text x="510" y="412" fill="#1b2330" font-weight="600">3</text>
      <text x="760" y="392" fill="#6b7480" font-size="11" letter-spacing="0.5">DURATION</text>
      <text x="760" y="412" fill="#1b2330" font-weight="600">1h 42m</text>
      <text x="1010" y="392" fill="#6b7480" font-size="11" letter-spacing="0.5">PID</text>
      <text x="1010" y="412" fill="#1b2330" font-weight="600">#48213  ●</text>

      <text x="510" y="444" fill="#6b7480" font-size="11" letter-spacing="0.5">FOLDER</text>
      <text x="510" y="463" fill="#1b2330" font-size="12">~/dev/web-shop</text>
    </g>

    <!-- goal -->
    <text x="488" y="512" fill="#6b7480" font-size="13" font-weight="700">🎯 SESSION GOAL</text>
    <rect x="488" y="522" width="752" height="70" rx="12" fill="#ffffff" stroke="#dce0e6"/>
    <rect x="488" y="522" width="4" height="70" rx="2" fill="#2563eb"/>
    <text x="508" y="548" fill="#1b2330" font-size="13">The order total is off by one cent on some carts. Reproduce with mixed</text>
    <text x="508" y="568" fill="#1b2330" font-size="13">tax rates, find where rounding happens and fix it without changing the</text>
    <text x="508" y="588" fill="#1b2330" font-size="13">pricing formula.</text>

    <!-- latest -->
    <text x="488" y="622" fill="#6b7480" font-size="13" font-weight="700">📍 LATEST STATE</text>
    <rect x="488" y="632" width="752" height="50" rx="12" fill="#ffffff" stroke="#dce0e6"/>
    <rect x="488" y="632" width="4" height="50" rx="2" fill="#16a34a"/>
    <text x="508" y="662" fill="#1b2330" font-size="13">Rounding fixed in the tax helper. Added a test for the 7.4% case — green now.</text>
  </g>
</svg>
